<?xml version="1.0" encoding="utf-8"?>
<!-- Generator: Adobe Illustrator 27.0.0, SVG Export Plug-In . SVG Version: 6.00 Build 0)  -->
<svg version="1.1" id="Layer_1" xmlns="http://www.w3.org/2000/svg" xmlns:xlink="http://www.w3.org/1999/xlink" x="0px" y="0px"
	 viewBox="0 0 54 55.5" style="enable-background:new 0 0 54 55.5;" xml:space="preserve">
<style type="text/css">
	.st0{fill:#FE7270;}
	.st1{fill:#141414;}
	.st2{opacity:0.2;fill:#141414;enable-background:new    ;}
	.st3{fill:#FFFFFF;}
	.st4{opacity:0.4;fill:#141414;enable-background:new    ;}
	.st5{opacity:0.5;fill:#E9E7DD;enable-background:new    ;}
</style>
<g>
	<g id="Capa_1">
		<g>
			<g id="color">
				<g>
					<circle class="st0" cx="27" cy="28.3" r="26"/>
					<path class="st1" d="M27,55.3c-14.9,0-27-12.1-27-27s12.1-27,27-27s27,12.1,27,27S41.9,55.3,27,55.3z M27,3.3
						c-13.8,0-25,11.2-25,25s11.2,25,25,25s25-11.2,25-25S40.8,3.3,27,3.3z"/>
				</g>
				<path class="st2" d="M47.3,44.5c-4.8,5.9-12.1,9.7-20.3,9.7c-14.4,0-26-11.6-26-26C1,20.1,4.8,12.8,10.7,8
					C7.1,12.4,5,18.1,5,24.3c0,14.4,11.6,26,26,26C37.2,50.3,42.8,48.1,47.3,44.5z"/>
				<path class="st3" d="M34,39.3l4.4,2.2l-1.7,0.9c-0.7,0.4-1.4,0.7-2.2,1l-1.7,0.5L34,39.3L34,39.3z"/>
				<path class="st3" d="M20.4,43.2c-0.7-0.2-1.4-0.5-2-0.8l-1.7-0.9l4.3-2.2l1.1,4.5L20.4,43.2L20.4,43.2z"/>
				<g>
					<g>
						<path class="st1" d="M48.4,13.5c-0.9-1.4-2-2.6-3.2-3.8l-0.7-0.7l0.6-0.7c1.3-1.5,2.1-3.2,2.2-5l0.2-2.1l1.5,1.5
							c1.7,1.7,2.7,3.6,2.9,5.4c0.2,1.9-0.5,3.7-2,5.5l-0.8,1L48.4,13.5L48.4,13.5z"/>
						<path class="st4" d="M48.4,13.5c-0.9-1.4-2-2.6-3.2-3.8l-0.7-0.7l0.6-0.7c1.3-1.5,2.1-3.2,2.2-5l0.2-2.1l1.5,1.5
							c1.7,1.7,2.7,3.6,2.9,5.4c0.2,1.9-0.5,3.7-2,5.5l-0.8,1L48.4,13.5L48.4,13.5z"/>
					</g>
					<path class="st1" d="M49.1,15.6C49.1,15.6,49.1,15.6,49.1,15.6c-0.4,0-0.6-0.2-0.8-0.4l-0.7-1.1l0,0c-0.9-1.3-1.9-2.5-3.1-3.6
						l-0.7-0.7c-0.4-0.4-0.4-1,0-1.4l0.6-0.7c1.2-1.3,1.8-2.8,2-4.4l0.2-2.1c0-0.4,0.3-0.7,0.7-0.9c0.4-0.1,0.8,0,1,0.2L49.8,2
						c1.9,1.9,3,4,3.2,6c0.2,2.1-0.5,4.2-2.2,6.2l-0.8,1C49.7,15.4,49.4,15.6,49.1,15.6z M49.2,12.9L49.2,12.9
						c1.3-1.6,1.9-3.1,1.8-4.7c-0.2-1.6-1-3.2-2.6-4.8c-0.2,2.1-1,3.9-2.5,5.6l0,0C47.1,10.2,48.2,11.5,49.2,12.9
						C49.2,12.9,49.2,12.9,49.2,12.9z"/>
				</g>
				<g>
					<g>
						<path class="st1" d="M4.2,13.4c-1.4-1.7-2-3.4-1.8-5.2c0.2-2.3,1.7-4.2,2.9-5.4l1.5-1.5L7,3.4c0.2,1.8,0.9,3.4,2.1,4.8
							l0.6,0.7L9,9.6c-1.2,1.1-2.3,2.4-3.2,3.7L5,14.4L4.2,13.4L4.2,13.4z"/>
						<path class="st4" d="M4.2,13.4c-1.4-1.7-2-3.4-1.8-5.2c0.2-2.3,1.7-4.2,2.9-5.4l1.5-1.5L7,3.4c0.2,1.8,0.9,3.4,2.1,4.8
							l0.6,0.7L9,9.6c-1.2,1.1-2.3,2.4-3.2,3.7L5,14.4L4.2,13.4L4.2,13.4z"/>
					</g>
					<path class="st1" d="M5,15.4c-0.3,0-0.6-0.1-0.8-0.4l-0.8-1c-1.6-1.9-2.2-3.9-2-6c0.2-2.6,1.9-4.7,3.2-6l1.5-1.5
						c0.3-0.3,0.7-0.4,1-0.2s0.6,0.5,0.7,0.9L8,3.3c0.1,1.6,0.8,3,1.9,4.3l0.6,0.7c0.3,0.4,0.3,1-0.1,1.4l-0.7,0.6
						c-1.1,1.1-2.2,2.3-3.1,3.6L5.8,15C5.7,15.2,5.4,15.4,5,15.4C5,15.4,5,15.4,5,15.4L5,15.4z M6,3.4C4.9,4.5,3.5,6.2,3.4,8.2
						c-0.2,1.5,0.4,3,1.6,4.5l0,0l0,0c1-1.4,2.1-2.7,3.3-3.9l0,0C6.9,7.2,6.2,5.4,6,3.4C6,3.4,6,3.4,6,3.4z"/>
				</g>
			</g>
			<g id="eyes_color">
				<path class="st1" d="M11.9,22c-1.1,0.4-1.9,1.5-1.9,2.8c0,1.7,1.3,3,3,3s3-1.3,3-3c0-0.4-0.1-0.7-0.2-1.1"/>
				<path class="st1" d="M38.2,23.7C38.1,24,38,24.4,38,24.8c0,1.7,1.3,3,3,3s3-1.3,3-3c0-1.3-0.8-2.4-1.9-2.8"/>
			</g>
			<path class="st5" d="M42.6,13.7c-0.3,0-0.5-0.1-0.7-0.3c-4-4-9.2-6.2-14.9-6.2c-0.5,0-1-0.4-1-1s0.5-1,1-1
				c6.1,0,11.9,2.4,16.3,6.7c0.4,0.4,0.4,1,0,1.4C43.1,13.6,42.8,13.7,42.6,13.7L42.6,13.7z"/>
			<g id="eyes_light">
				<path class="st3" d="M14.9,24.4c-0.3,0.8-1,1.3-1.9,1.3c-1.1,0-2-0.9-2-2c0-0.4,0.1-0.7,0.3-1C12.3,23.3,13.5,23.9,14.9,24.4z"
					/>
				<path class="st3" d="M43,23.8c0,1.1-0.9,2-2,2c-0.9,0-1.6-0.6-1.9-1.3c1.3-0.5,2.6-1.1,3.6-1.7C42.9,23.1,43,23.4,43,23.8z"/>
			</g>
			<g id="face">
				<path class="st1" d="M13,28.8c-2.2,0-4-1.8-4-4c0-1.6,1-3.1,2.6-3.7l0.7,1.9c-0.8,0.3-1.3,1-1.3,1.9c0,1.1,0.9,2,2,2s2-0.9,2-2
					c0-0.2,0-0.5-0.1-0.7l1.9-0.7c0.2,0.5,0.3,0.9,0.3,1.4C17,27,15.2,28.8,13,28.8L13,28.8z"/>
				<path class="st1" d="M41,28.8c-2.2,0-4-1.8-4-4c0-0.5,0.1-1,0.3-1.4l1.9,0.7C39,24.3,39,24.5,39,24.8c0,1.1,0.9,2,2,2s2-0.9,2-2
					c0-0.8-0.5-1.6-1.3-1.9l0.7-1.9c1.5,0.6,2.6,2.1,2.6,3.7C45,27,43.2,28.8,41,28.8L41,28.8z"/>
				<path class="st1" d="M27,26.8c-12.2,0-20.3-7-20.7-7.2c-0.4-0.4-0.5-1-0.1-1.4c0.4-0.4,1-0.5,1.4-0.1c0.1,0.1,7.9,6.8,19.3,6.8
					s19.3-6.7,19.3-6.8c0.4-0.4,1-0.3,1.4,0.1c0.4,0.4,0.3,1-0.1,1.4C47.3,19.8,39.2,26.8,27,26.8L27,26.8z"/>
				<path class="st1" d="M28,45.3c-11.5,0-13.8-5.4-13.9-5.6c-0.2-0.5,0-1.1,0.6-1.3c0.5-0.2,1.1,0,1.3,0.5C16,39,18,43.3,28,43.3
					c9.2,0,11-4.3,11.1-4.4c0.2-0.5,0.8-0.8,1.3-0.6c0.5,0.2,0.8,0.8,0.6,1.3C40.8,39.9,38.6,45.3,28,45.3L28,45.3z"/>
				<path class="st1" d="M32.9,44.8c-0.1,0-0.2,0-0.2,0c-0.5-0.1-0.9-0.7-0.7-1.2L33,39c0.1-0.3,0.3-0.5,0.5-0.7
					c0.3-0.1,0.6-0.1,0.9,0l4.2,2.1c0.5,0.2,0.7,0.8,0.4,1.3s-0.8,0.7-1.3,0.4l-3.1-1.6L33.8,44C33.7,44.5,33.3,44.8,32.9,44.8
					L32.9,44.8z"/>
				<path class="st1" d="M22.1,44.7c-0.5,0-0.9-0.3-1-0.8l-0.8-3.2l-3.1,1.5c-0.5,0.2-1.1,0-1.3-0.5s-0.1-1.1,0.5-1.3l4.2-2.1
					c0.3-0.1,0.6-0.1,0.9,0s0.5,0.4,0.5,0.7l1.1,4.4c0.1,0.5-0.2,1.1-0.7,1.2C22.3,44.7,22.2,44.7,22.1,44.7L22.1,44.7z"/>
			</g>
		</g>
	</g>
</g>
</svg>
