<?xml version="1.0" encoding="utf-8"?>
<!-- Generator: Adobe Illustrator 27.0.0, SVG Export Plug-In . SVG Version: 6.00 Build 0)  -->
<svg version="1.1" id="Layer_1" xmlns="http://www.w3.org/2000/svg" xmlns:xlink="http://www.w3.org/1999/xlink" x="0px" y="0px"
	 viewBox="0 0 100 100" style="enable-background:new 0 0 100 100;" xml:space="preserve">
<style type="text/css">
	.st0{fill:#141414;}
</style>
<g>
	<path class="st0" d="M81,12.1c3.8,0,6.9,3.1,6.9,6.9v62c0,3.8-3.1,6.9-6.9,6.9H19c-3.8,0-6.9-3.1-6.9-6.9V19c0-3.8,3.1-6.9,6.9-6.9
		H81 M81,0H19C8.5,0,0,8.5,0,19v62c0,10.5,8.5,19,19,19h62c10.5,0,19-8.5,19-19V19C100,8.5,91.5,0,81,0L81,0z"/>
	<path class="st0" d="M38.3,54.7h8.4v25.8c2.1,0.3,4.2,0.6,6.3,0.6c2.2,0,4.3-0.2,6.3-0.6V54.7H67c1.1,0,2-0.8,2.1-1.8l0.8-6.3
		c0.1-0.6-0.1-1.2-0.5-1.7c-0.4-0.5-1-0.7-1.6-0.7h-8.4v-7.4c0-2.3,1.9-4.2,4.2-4.2h4.2c1.2,0,2.1-0.9,2.1-2.1v-7.1
		c0-1.1-0.8-2-1.9-2.1c-0.1,0-3.1-0.3-6.9-0.3c-9.3,0-14.4,5.5-14.4,15.5v7.7h-8.4c-1.2,0-2.1,0.9-2.1,2.1v6.3
		C36.2,53.8,37.1,54.7,38.3,54.7z"/>
</g>
</svg>
