<?xml version="1.0" encoding="utf-8"?>
<!-- Generator: Adobe Illustrator 27.0.0, SVG Export Plug-In . SVG Version: 6.00 Build 0)  -->
<svg version="1.1" id="Layer_1" xmlns="http://www.w3.org/2000/svg" xmlns:xlink="http://www.w3.org/1999/xlink" x="0px" y="0px"
	 viewBox="0 0 100 100" style="enable-background:new 0 0 100 100;" xml:space="preserve">
<style type="text/css">
	.st0{fill:#141414;}
</style>
<g>
	<path class="st0" d="M81,12.1c3.8,0,6.9,3.1,6.9,6.9v62c0,3.8-3.1,6.9-6.9,6.9H19c-3.8,0-6.9-3.1-6.9-6.9V19c0-3.8,3.1-6.9,6.9-6.9
		H81 M81,0H19C8.5,0,0,8.5,0,19v62c0,10.5,8.5,19,19,19h62c10.5,0,19-8.5,19-19V19C100,8.5,91.5,0,81,0L81,0z"/>
	<g>
		<path class="st0" d="M50,29.3c-11.4,0-20.7,9.3-20.7,20.7S38.6,70.7,50,70.7S70.7,61.4,70.7,50S61.4,29.3,50,29.3z M50,58.6
			c-4.7,0-8.6-3.8-8.6-8.6s3.8-8.6,8.6-8.6s8.6,3.8,8.6,8.6S54.7,58.6,50,58.6z"/>
		<path class="st0" d="M75,19.4c-3.4,0-6.1,2.7-6.1,6.1c0,3.4,2.7,6.1,6.1,6.1c3.4,0,6.1-2.7,6.1-6.1C81.1,22.1,78.3,19.4,75,19.4z"
			/>
	</g>
</g>
</svg>
