<?xml version="1.0" encoding="utf-8"?>
<!-- Generator: Adobe Illustrator 27.0.0, SVG Export Plug-In . SVG Version: 6.00 Build 0)  -->
<svg version="1.1" id="Layer_1" xmlns="http://www.w3.org/2000/svg" xmlns:xlink="http://www.w3.org/1999/xlink" x="0px" y="0px"
	 viewBox="0 0 100 100" style="enable-background:new 0 0 100 100;" xml:space="preserve">
<style type="text/css">
	.st0{fill:#141414;}
</style>
<g>
	<path class="st0" d="M81,12.1c3.8,0,6.9,3.1,6.9,6.9v62c0,3.8-3.1,6.9-6.9,6.9H19c-3.8,0-6.9-3.1-6.9-6.9V19c0-3.8,3.1-6.9,6.9-6.9
		H81 M81,0H19C8.5,0,0,8.5,0,19v62c0,10.5,8.5,19,19,19h62c10.5,0,19-8.5,19-19V19C100,8.5,91.5,0,81,0L81,0z"/>
	<g>
		<circle class="st0" cx="29.1" cy="29.1" r="6.2"/>
		<path class="st0" d="M32.8,77.1h-7.4c-1.5,0-2.5-1-2.5-2.5v-32c0-1.5,1-2.5,2.5-2.5h7.4c1.5,0,2.5,1,2.5,2.5v32
			C35.2,76.1,34.3,77.1,32.8,77.1z"/>
		<path class="st0" d="M62.3,40.2c-3.7,0-7.1,1.5-9.8,3.7v-1.2c0-1.5-1-2.5-2.5-2.5h-7.4c-1.5,0-2.5,1-2.5,2.5v32
			c0,1.5,1,2.5,2.5,2.5H50c1.5,0,2.5-1,2.5-2.5V56.2c0-3.4,2.7-6.2,6.2-6.2s6.2,2.7,6.2,6.2v18.5c0,1.5,1,2.5,2.5,2.5h7.4
			c1.5,0,2.5-1,2.5-2.5V54.9C77.1,46.8,70.4,40.2,62.3,40.2z"/>
	</g>
</g>
</svg>
