<?xml version="1.0" encoding="utf-8"?>
<!-- Generator: Adobe Illustrator 27.0.0, SVG Export Plug-In . SVG Version: 6.00 Build 0)  -->
<svg version="1.1" id="Layer_1" xmlns="http://www.w3.org/2000/svg" xmlns:xlink="http://www.w3.org/1999/xlink" x="0px" y="0px"
	 viewBox="0 0 100 100" style="enable-background:new 0 0 100 100;" xml:space="preserve">
<style type="text/css">
	.st0{fill:#141414;}
</style>
<path class="st0" d="M100,7.8v72.7c0,0.1-0.1,0.2-0.1,0.3c-1.3,5-4.3,7.3-9.5,7.3c-7,0-13.9,0-20.9,0c-0.7,0-1.1,0.2-1.4,0.8
	c-4,7-10,10.9-18.1,10.8c-8,0-14.1-3.9-18-10.9c-0.3-0.6-0.6-0.8-1.3-0.8c-7.2,0-14.3,0-21.5,0c-5.2,0-9.1-3.8-9.1-9
	C0,55.8,0,32.5,0,9.3c0-0.8,0.1-1.7,0.3-2.5c1-4,4.5-6.5,8.9-6.5c27.1,0,54.3,0,81.4,0c0.3,0,0.6,0,0.9,0c3.4,0.2,6,1.8,7.6,4.9
	C99.5,5.9,99.7,6.9,100,7.8L100,7.8z M5.9,29.5v1c0,16.1,0,32.2,0,48.3c0,2.3,1.1,3.4,3.4,3.4c6.5,0,12.9,0,19.4,0c0.3,0,0.6,0,1,0
	c-1.7-11.7,7-22.6,19.1-23.4c5.5-0.3,10.5,1.3,14.7,5c5.5,4.9,7.7,11.1,6.9,18.4h1c6.4,0,12.8,0,19.2,0c2.4,0,3.5-1.1,3.5-3.5
	c0-16,0-32.1,0-48.1v-1.1L5.9,29.5L5.9,29.5z M94.1,23.6v-1c0-4.4,0-8.8,0-13.2c0-2.3-1.1-3.4-3.4-3.4c-27.1,0-54.3,0-81.4,0
	C7,6.1,5.9,7.2,5.9,9.5c0,4.4,0,8.8,0,13.2c0,0.3,0,0.6,0,1L94.1,23.6L94.1,23.6z M35.3,79.3C35.3,87.4,41.9,94,50,94
	c8.1,0,14.6-6.6,14.6-14.7c0-8.1-6.6-14.6-14.7-14.6C41.9,64.7,35.3,71.3,35.3,79.3z"/>
<path class="st0" d="M54.6,42.9c0.5-1.8,0.8-3.4,1.2-5c0.5-1.8,2-2.8,3.5-2.4c1.7,0.4,2.6,2,2.1,3.9c-0.9,3.7-1.8,7.4-2.8,11.2
	c-0.3,1.3-1.1,2.2-2.5,2.5c-1.3,0.2-2.3-0.4-3-1.5c-1-1.6-2.1-3.2-3.3-4.9c-1,1.4-1.8,2.8-2.7,4.1c-0.3,0.4-0.5,0.8-0.8,1.2
	c-0.7,0.9-1.6,1.3-2.8,1.1c-1.1-0.2-2-0.8-2.3-2c-1.1-4-2.1-8.1-3.1-12.2c-0.3-1.5,0.8-2.9,2.2-3.3c1.5-0.3,3,0.5,3.4,2
	c0.5,1.7,0.9,3.5,1.4,5.4c0.7-1.1,1.3-2,2-2.9c1.5-2.2,3.8-2.2,5.3,0C53.2,40.9,53.8,41.8,54.6,42.9L54.6,42.9z"/>
<path class="st0" d="M71.8,42.9c0.8-1.1,1.4-2.1,2.1-3.1c1.4-2,3.7-2,5.1,0c0.7,1,1.3,1.9,2.1,3.1c0.5-1.9,0.9-3.5,1.3-5.2
	c0.4-1.4,1.5-2.3,2.9-2.3c1.3,0,2.5,1,2.8,2.3c0.1,0.4,0.1,0.9,0,1.3c-0.9,3.8-1.9,7.7-2.9,11.5c-0.3,1.3-1.1,2.1-2.4,2.3
	c-1.3,0.2-2.3-0.3-3-1.4c-1.1-1.6-2.2-3.2-3.3-5c-1.2,1.7-2.2,3.3-3.3,4.9c-0.5,0.8-1.2,1.3-2.2,1.5c-1.4,0.2-2.8-0.6-3.2-2.1
	c-1.1-4-2.1-8-3-12c-0.4-1.5,0.7-3,2.2-3.4c1.4-0.4,3,0.4,3.5,1.9c0.4,1.5,0.8,3,1.2,4.4C71.6,42.1,71.6,42.4,71.8,42.9L71.8,42.9z"
	/>
<path class="st0" d="M28.3,42.9c0.5-1.8,0.8-3.4,1.2-5c0.5-1.8,2-2.9,3.6-2.5c1.7,0.4,2.6,2,2.1,3.9c-0.9,3.7-1.8,7.4-2.8,11.2
	c-0.3,1.3-1.1,2.2-2.5,2.4c-1.3,0.2-2.3-0.4-3-1.4c-1.1-1.6-2.1-3.2-3.2-4.9c-0.2,0.2-0.4,0.4-0.5,0.6c-1,1.4-1.9,2.9-2.9,4.3
	c-0.7,1.1-1.7,1.6-3,1.4c-1.3-0.2-2.1-1-2.4-2.3c-1-3.9-1.9-7.8-2.9-11.6c-0.4-1.6,0.6-3.1,2.1-3.5c1.5-0.4,3,0.5,3.5,2
	c0.5,1.7,0.9,3.5,1.4,5.4c0.7-1,1.3-2,1.9-2.9c1.5-2.3,3.9-2.3,5.4,0C26.9,40.9,27.5,41.8,28.3,42.9L28.3,42.9z"/>
<path class="st0" d="M76.3,17.8c-2.8,0-5.7,0-8.5,0c-1.9,0-3.2-1.2-3.2-2.9c0-1.7,1.3-2.9,3.2-2.9c5.7,0,11.4,0,17.1,0
	c1.9,0,3.2,1.2,3.2,3c0,1.7-1.3,2.9-3.2,2.9C82.1,17.8,79.2,17.8,76.3,17.8L76.3,17.8z"/>
<path class="st0" d="M14.8,11.9c1.6,0,2.9,1.3,2.9,2.9c0,1.6-1.3,3-3,3c-1.6,0-2.9-1.4-2.9-2.9S13.2,11.9,14.8,11.9z"/>
<path class="st0" d="M29.5,14.9c0,1.6-1.3,2.9-2.9,2.9c-1.6,0-3-1.4-2.9-3c0-1.6,1.4-2.9,3-2.9S29.5,13.3,29.5,14.9z"/>
<path class="st0" d="M38.3,17.8c-1.6,0-2.9-1.3-2.9-2.9c0-1.6,1.4-3,3-2.9c1.6,0,2.9,1.4,2.9,3S39.9,17.8,38.3,17.8L38.3,17.8z"/>
<path class="st0" d="M47.7,81.5c0.2-0.2,0.5-0.4,0.7-0.7c2.1-2.1,4.2-4.2,6.3-6.3c1.3-1.3,3.1-1.3,4.3-0.2c1.2,1.2,1.2,3-0.1,4.3
	c-3,3.1-6,6.1-9.1,9.1c-1.4,1.4-3.1,1.3-4.5,0c-1.5-1.5-3-3-4.5-4.5c-1.3-1.4-1.4-3.1-0.2-4.3c1.2-1.2,3-1.1,4.3,0.2
	c0.8,0.8,1.7,1.6,2.5,2.4C47.6,81.5,47.6,81.5,47.7,81.5L47.7,81.5z"/>
</svg>
