<?xml version="1.0" encoding="UTF-8"?>
<svg id="Layer_1" data-name="Layer 1" xmlns="http://www.w3.org/2000/svg" viewBox="0 0 100 100">
  <path d="M33.79,0c1.94,.71,2.69,2.11,2.64,4.16-.08,3.19,.02,6.38-.04,9.56-.04,2.51-2.25,4.09-4.46,3.25-1.43-.54-2.18-1.66-2.19-3.16-.04-3.48-.03-6.96,0-10.44C29.74,1.67,30.79,.68,32.23,0h1.56Z" style="fill: #141414;"/>
  <path d="M0,32.22c.86-2.01,2.44-2.61,4.54-2.54,3.02,.1,6.05,0,9.08,.04,2.56,.03,4.2,2.24,3.36,4.49-.47,1.26-1.4,2.11-2.76,2.13-3.74,.06-7.48,.06-11.22,0-1.61-.03-2.42-1.2-2.99-2.55v-1.56Z" style="fill: #141414;"/>
  <path d="M78.95,64.82c.4,.28,.73,.45,.98,.69,6.18,6.16,12.34,12.33,18.51,18.49,2.07,2.07,2.07,3.79,0,5.86-2.83,2.83-5.66,5.66-8.49,8.49-2.18,2.18-3.84,2.19-5.99,.03-6.15-6.14-12.29-12.29-18.43-18.44-.25-.25-.43-.57-.73-.96-.32,.51-.52,.8-.69,1.1-2.46,4.25-4.92,8.5-7.36,12.76-.63,1.09-1.43,1.94-2.77,2.07-1.69,.17-2.91-.61-3.62-2.35-1.27-3.13-2.51-6.27-3.76-9.41-7.04-17.65-14.08-35.31-21.12-52.96-.98-2.44-.17-4.58,2.06-5.04,.85-.17,1.88,.04,2.72,.37,10.22,4.03,20.41,8.11,30.61,12.18,10.47,4.18,20.94,8.35,31.42,12.53,2.28,.91,3.3,2.79,2.35,4.65-.39,.75-1.14,1.43-1.88,1.88-4.19,2.49-8.43,4.9-12.65,7.34-.3,.18-.59,.37-1.15,.72Z" style="fill: #141414;"/>
  <path d="M19.26,23.09c-.41-.23-1.32-.51-1.94-1.09-2.47-2.36-4.87-4.79-7.26-7.23-1.43-1.47-1.43-3.46-.1-4.8,1.33-1.34,3.35-1.35,4.8,.07,2.47,2.41,4.9,4.86,7.31,7.32,1.06,1.08,1.32,2.38,.69,3.77-.58,1.27-1.63,1.89-3.51,1.96Z" style="fill: #141414;"/>
  <path d="M21.56,46.22c-.21,.39-.48,1.31-1.07,1.92-2.38,2.49-4.84,4.91-7.3,7.33-1.41,1.39-3.5,1.37-4.8,.03-1.3-1.33-1.29-3.31,.09-4.73,2.41-2.46,4.86-4.9,7.31-7.32,1.07-1.06,2.36-1.36,3.76-.74,1.28,.57,1.92,1.6,2,3.5Z" style="fill: #141414;"/>
  <path d="M56.52,11.27c-.2,.38-.45,1.27-1.02,1.86-2.4,2.52-4.88,4.96-7.36,7.4-1.38,1.35-3.44,1.33-4.73,.04-1.32-1.32-1.36-3.32,.02-4.73,2.45-2.51,4.94-4.99,7.45-7.45,1.05-1.03,2.33-1.26,3.69-.63,1.27,.59,1.9,1.62,1.96,3.5Z" style="fill: #141414;"/>
</svg>