<?xml version="1.0" encoding="UTF-8"?>
<svg id="Layer_1" data-name="Layer 1" xmlns="http://www.w3.org/2000/svg" viewBox="0 0 100 100">
  <path d="M39.94,33.34c-10.86,0-21.73,0-32.59,0C2.7,33.34,0,30.63,0,25.96,0,19.71,0,13.47,0,7.22,0,2.77,2.76,.01,7.21,.01c21.87,0,43.73,0,65.6,0,4.44,0,7.19,2.76,7.19,7.22,0,6.32,0,12.63,0,18.95,0,4.38-2.78,7.16-7.15,7.16-10.97,0-21.94,0-32.9,0Z" style="fill: #141414;"/>
  <path d="M86.65,37.41V16.45c0-3.84,3.38-6.8,7.18-6.3l1.16,.15c3,.4,5,3.32,5,6.54,.01,8.78,0,17.56,0,26.34,0,.41-.02,.84-.1,1.24-.55,2.98-2.7,5.12-5.73,5.52-6.22,.82-12.45,1.57-18.68,2.34-6.37,.79-12.73,1.58-19.1,2.38-3.2,.4-6.39,.81-9.65,1.22v4.06c2.79,.24,4.93,1.47,6.02,4.1,.36,.87,.55,1.88,.55,2.83,.05,6.69,.05,13.38,.02,20.07-.02,4.94-2.74,9.64-7.24,11.67-10.35,4.67-20.33-3.35-19.34-13.45,.54-5.48,.54-10.96,0-16.45-.51-5.16,1.73-8.19,6.6-8.78,0-1.26,0-2.53,0-3.81,0-2.29-.02-4.58,.01-6.87,.04-2.94,2.23-5.42,5.15-5.79,8.25-1.05,16.52-2.04,24.77-3.07,7.64-.95,15.27-1.92,22.91-2.89,.13-.02,.26-.05,.47-.1Z" style="fill: #141414;"/>
</svg>