<?xml version="1.0" encoding="utf-8"?>
<!-- Generator: Adobe Illustrator 27.0.0, SVG Export Plug-In . SVG Version: 6.00 Build 0)  -->
<svg version="1.1" id="Layer_1" xmlns="http://www.w3.org/2000/svg" xmlns:xlink="http://www.w3.org/1999/xlink" x="0px" y="0px"
	 viewBox="0 0 100 100" style="enable-background:new 0 0 100 100;" xml:space="preserve">
<style type="text/css">
	.st0{fill:#141414;}
</style>
<path class="st0" d="M100,7.8v84.4c-0.1,0.2-0.1,0.3-0.2,0.4c-1,4.5-4.4,7.2-8.9,7.2c-27.3,0-54.5,0-81.8,0c-5.2,0-9.1-3.8-9.1-9
	C0,63.6,0,36.4,0,9.2c0-0.8,0.1-1.7,0.3-2.5c1-4,4.5-6.5,8.9-6.5c21,0,42,0,63,0c6.3,0,12.6,0,18.9,0c3.8,0,6.5,1.8,8.1,5.2
	C99.6,6.2,99.7,7,100,7.8L100,7.8z M94.1,29.6H5.9c0,0.5,0,0.8,0,1.2c0,19.8,0,39.6,0,59.5c0,2.7,1,3.7,3.7,3.7c27,0,53.9,0,80.8,0
	c2.7,0,3.7-1,3.7-3.7c0-19.8,0-39.7,0-59.6C94.1,30.7,94.1,29.6,94.1,29.6z M94.1,23.6c0-4.8,0-9.5,0-14.2c0-2.2-1.2-3.4-3.3-3.4
	c-27.2,0-54.4,0-81.6,0C7,6.1,5.9,7.2,5.9,9.4c0,4.5,0,8.9,0,13.4c0,0.3,0,0.6,0.1,0.8L94.1,23.6L94.1,23.6z"/>
<path class="st0" d="M61.7,41.5c-0.1,0.2-0.2,0.7-0.4,1.2C55.6,56.2,49.8,69.6,44,83.1c-0.8,1.8-2.4,2.5-3.9,1.8
	c-1.6-0.7-2.2-2.4-1.4-4.2C44.4,67.3,50.2,53.8,56,40.4c0.7-1.5,2-2.3,3.4-2C60.7,38.6,61.7,39.8,61.7,41.5L61.7,41.5z"/>
<path class="st0" d="M22.5,61.7c2.6,2.1,5.1,4.1,7.6,6c1.3,1.1,2.7,2.1,4,3.2c1.5,1.2,1.8,2.9,0.7,4.3c-1.1,1.4-2.9,1.5-4.4,0.3
	c-4.7-3.8-9.4-7.5-14.1-11.3c-1.9-1.5-1.9-3.5,0-5c4.7-3.8,9.4-7.5,14.1-11.3c1.5-1.2,3.3-1.1,4.4,0.2c1.1,1.4,0.8,3.1-0.8,4.3
	c-3.5,2.8-7,5.6-10.4,8.3C23.2,61.1,22.9,61.4,22.5,61.7L22.5,61.7z"/>
<path class="st0" d="M77.5,61.7c-2.3-1.9-4.6-3.7-6.8-5.4c-1.6-1.3-3.2-2.5-4.8-3.8c-1.5-1.2-1.7-3-0.6-4.3c1.1-1.3,2.8-1.4,4.3-0.3
	c4.8,3.8,9.5,7.6,14.2,11.4c1.8,1.5,1.8,3.5,0,5c-4.7,3.8-9.4,7.6-14.2,11.3c-1.5,1.2-3.3,1.1-4.3-0.3c-1.1-1.3-0.8-3.1,0.7-4.3
	c3.5-2.8,7.1-5.7,10.6-8.5C76.9,62.3,77.1,62,77.5,61.7L77.5,61.7z"/>
<path class="st0" d="M76.4,11.9c2.8,0,5.7,0,8.5,0c1.9,0,3.2,1.2,3.2,2.9c0,1.7-1.3,3-3.3,3c-5.6,0-11.2,0-16.9,0
	c-2,0-3.3-1.2-3.3-2.9c0-1.7,1.3-2.9,3.3-2.9C70.8,11.9,73.6,11.9,76.4,11.9L76.4,11.9z"/>
<path class="st0" d="M17.8,14.9c0,1.6-1.3,2.9-2.9,2.9c-1.6,0-3-1.4-2.9-3c0-1.6,1.4-2.9,3-2.9S17.8,13.3,17.8,14.9L17.8,14.9z"/>
<path class="st0" d="M29.5,14.9c0,1.6-1.3,2.9-2.9,2.9c-1.6,0-3-1.4-2.9-3c0-1.6,1.4-2.9,3-2.9C28.2,11.9,29.5,13.3,29.5,14.9z"/>
<path class="st0" d="M41.2,14.8c0,1.6-1.3,2.9-2.8,3c-1.6,0-3-1.3-3-2.9c0-1.6,1.3-2.9,2.9-2.9C39.8,11.9,41.2,13.2,41.2,14.8
	L41.2,14.8z"/>
</svg>
