<?xml version="1.0" encoding="utf-8"?>
<!-- Generator: Adobe Illustrator 27.0.0, SVG Export Plug-In . SVG Version: 6.00 Build 0)  -->
<svg version="1.1" id="Layer_1" xmlns="http://www.w3.org/2000/svg" xmlns:xlink="http://www.w3.org/1999/xlink" x="0px" y="0px"
	 viewBox="0 0 100 100" style="enable-background:new 0 0 100 100;" xml:space="preserve">
<style type="text/css">
	.st0{fill:#141414;}
</style>
<path class="st0" d="M81,0H19C8.5,0,0,8.5,0,19v62c0,10.5,8.5,19,19,19h62c10.5,0,19-8.5,19-19V19C100,8.5,91.5,0,81,0z M87.9,27.9
	v27.7L72.6,40.3L87.9,27.9z M19,12.1h62c1.8,0,3.5,0.7,4.7,1.9L53.5,40.3c-1.8,1.5-4.5,1.5-6.3,0L30.5,26.7
	c-2.6-2.1-6.4-1.7-8.5,0.9c-2.1,2.6-1.7,6.4,0.9,8.5l5.2,4.2L12.1,56.2V19C12.1,15.2,15.2,12.1,19,12.1z M81,87.9H19
	c-3.8,0-6.9-3.1-6.9-6.9v-7.9c0.4-0.3,0.9-0.6,1.2-0.9L37.5,48l2,1.6c3.1,2.6,7,3.8,10.8,3.8c3.8,0,7.7-1.3,10.8-3.8l2-1.7
	l24.1,24.1c0.2,0.2,0.4,0.3,0.6,0.5V81C87.9,84.8,84.8,87.9,81,87.9z"/>
</svg>
