<?xml version="1.0" encoding="utf-8"?>
<!-- Generator: Adobe Illustrator 27.0.0, SVG Export Plug-In . SVG Version: 6.00 Build 0)  -->
<svg version="1.1" id="Layer_1" xmlns="http://www.w3.org/2000/svg" xmlns:xlink="http://www.w3.org/1999/xlink" x="0px" y="0px"
	 viewBox="0 0 100 100" style="enable-background:new 0 0 100 100;" xml:space="preserve">
<style type="text/css">
	.st0{fill:#141414;}
</style>
<path class="st0" d="M98.8,59c-0.6-2.5-1.2-5-1.7-7.5c-0.2-0.9-0.2-2,0-2.9c0.5-2.5,1.1-5,1.7-7.5c0.4-1.6,0.1-2.9-0.9-4.1
	c-1.7-2.1-3.4-4.2-5-6.3c-0.4-0.6-0.8-1.3-1-2c-0.6-2.6-1.2-5.1-1.8-7.7c-0.4-1.6-1.2-2.8-2.8-3.5c-1.3-0.6-2.5-1.3-3.9-1.8
	c-2.9-1.2-5.4-2.9-7.2-5.6c-0.7-1.1-1.7-2.1-2.5-3.2c-1.1-1.6-2.6-2.3-4.6-2.3H69c-1.6,0-3.3,0.2-5,0.2c-1.2,0-2.4-0.1-3.6-0.3
	c-2.7-0.6-5.2-2.3-7.7-3.6C51.8,0.2,50.9,0,50,0c-0.9,0-1.8,0.3-2.7,0.7c-2.5,1.3-4.9,2.9-7.6,3.5c-1.1,0.2-2.2,0.3-3.4,0.3
	c-1.6,0-3.3-0.1-4.9-0.1h-1.2c-1.4,0-2.6,0.6-3.4,1.7c-0.9,1.1-1.8,2.1-2.6,3.3c-1.9,3-4.5,5.1-7.9,6.3c-1.3,0.5-2.6,1.2-3.9,1.8
	c-1.3,0.6-2.1,1.6-2.4,3c-0.1,0.6-0.3,1.1-0.4,1.7c-0.7,5-2.5,9.5-6.2,13.1c-0.4,0.4-0.8,1-1.2,1.5c-1.1,1.2-1.4,2.6-1,4.2
	C2,43.8,3,46.5,3,49.3c0,2.8-0.9,5.6-1.4,8.3c-0.1,0.5-0.2,0.9-0.3,1.4c-0.4,1.5-0.1,2.8,0.9,4c1.3,1.7,2.6,3.4,4,5
	c1.3,1.5,2.1,3.2,2.4,5.1C9,75.1,9.5,77,9.9,79c0.3,1.7,1.3,2.9,2.8,3.6c2.4,1.1,4.9,2.3,7.2,3.5c0.2,0.1,0.4,0.2,0.5,0.3
	c0.3,0.2,0.7,0.5,0.9,0.8c1.8,2.1,3.5,4.3,5.2,6.5c0.9,1.2,2.1,1.8,3.6,1.8h0.1c1.5,0,2.9,0,4.4,0c0.8,0,1.6,0,2.4,0
	c0.1,0,0.3,0,0.4,0c1.5,0,2.9,0.4,4.2,1.1c1.9,1,3.9,1.9,5.9,2.9c0.7,0.4,1.4,0.6,2.1,0.6c0,0,0,0,0,0c0.1,0,0.1,0,0.2,0
	c0,0,0.1,0,0.1,0c0,0,0,0,0,0c0.7,0,1.4-0.2,2.1-0.6c1.2-0.6,2.4-1.1,3.5-1.7c0.6-0.3,1.2-0.7,1.9-1c0.6-0.3,1.3-0.6,1.9-0.7
	c1.6-0.5,3.3-0.8,5-0.6c0.3,0,0.7,0.1,1,0.1c0.8,0,1.6,0,2.3,0c0.5,0,1,0,1.4,0c0.1,0,0.2,0,0.3,0c1.6,0,2.8-0.7,3.8-2
	c1.5-2,3.1-4,4.7-5.9c0.4-0.4,0.8-0.8,1.2-1.1c0.3-0.2,0.6-0.4,0.9-0.6c2.3-1.2,4.7-2.3,7-3.4c1.5-0.7,2.3-1.8,2.7-3.4
	c0.6-2.6,1.2-5.2,1.8-7.9c0.2-0.6,0.5-1.3,0.8-1.8c1.7-2.2,3.4-4.3,5.1-6.4C98.8,61.9,99.1,60.5,98.8,59L98.8,59z M51.7,61.2
	c-2.8,2.7-5.2,2.9-8.2,0.4c-4-3.2-8.1-6.4-12.2-9.7c2.1-2.7,4.2-5.3,6.4-8.1c3.1,2.5,6.2,4.9,9.2,7.3c4.9-4.9,9.8-9.8,14.6-14.6
	c2.5,2.5,4.8,4.9,7.3,7.4c-0.1,0.1-0.4,0.5-0.7,0.8C62.7,50.3,57.2,55.7,51.7,61.2z"/>
</svg>
