<?xml version="1.0" encoding="utf-8"?>
<!-- Generator: Adobe Illustrator 27.0.0, SVG Export Plug-In . SVG Version: 6.00 Build 0)  -->
<svg version="1.1" id="Layer_1" xmlns="http://www.w3.org/2000/svg" xmlns:xlink="http://www.w3.org/1999/xlink" x="0px" y="0px"
	 viewBox="0 0 58.6 54.5" style="enable-background:new 0 0 58.6 54.5;" xml:space="preserve">
<style type="text/css">
	.st0{fill:#F5D10B;}
	.st1{fill:#141414;}
	.st2{fill:#FF4133;}
	.st3{opacity:0.2;fill:#141414;enable-background:new    ;}
	.st4{opacity:0.5;fill:#E9E7DD;enable-background:new    ;}
	.st5{fill:#67EDFD;}
</style>
<g>
	<g id="Capa_1">
		<g>
			<g id="color">
				<g>
					<circle class="st0" cx="27" cy="27.5" r="26"/>
					<path class="st1" d="M27,54.5c-14.9,0-27-12.1-27-27s12.1-27,27-27s27,12.1,27,27S41.9,54.5,27,54.5z M27,2.5
						c-13.8,0-25,11.2-25,25s11.2,25,25,25s25-11.2,25-25S40.8,2.5,27,2.5z"/>
				</g>
				<circle class="st1" cx="27" cy="42.5" r="7"/>
				<path class="st2" d="M32.2,45.5c-1,1.8-3,3-5.2,3s-4.2-1.2-5.2-3c1.1-1.8,3-3,5.2-3S31.2,43.7,32.2,45.5z"/>
				<path class="st3" d="M47.3,43.8c-4.8,5.9-12.1,9.7-20.3,9.7c-14.4,0-26-11.6-26-26C1,19.3,4.8,12,10.8,7.2
					C7.2,11.7,5,17.3,5,23.5c0,14.4,11.6,26,26,26C37.2,49.5,42.9,47.4,47.3,43.8z"/>
			</g>
			<path class="st4" d="M42.6,12.9c-0.3,0-0.5-0.1-0.7-0.3c-4-4-9.2-6.2-14.9-6.2c-0.5,0-1-0.4-1-1s0.5-1,1-1
				c6.1,0,11.9,2.4,16.3,6.7c0.4,0.4,0.4,1,0,1.4C43.1,12.9,42.9,12.9,42.6,12.9L42.6,12.9z"/>
			<g id="face">
				<path class="st1" d="M41,33.5c-4.6,0-6.8-4.4-6.9-4.5c-0.2-0.5,0-1.1,0.5-1.3c0.5-0.2,1.1,0,1.3,0.5c0,0.1,1.8,3.5,5.1,3.5
					s5.1-3.4,5.1-3.5c0.2-0.5,0.8-0.7,1.3-0.4s0.7,0.9,0.5,1.3C47.9,29.2,45.6,33.5,41,33.5L41,33.5z"/>
				<path class="st1" d="M13.1,33.5c-4.6,0-6.8-4.4-6.9-4.5c-0.2-0.5-0.1-1.1,0.4-1.3s1.1,0,1.3,0.5c0,0.1,1.8,3.5,5.1,3.5
					s5.1-3.4,5.1-3.5c0.2-0.5,0.9-0.7,1.3-0.4s0.7,0.9,0.5,1.3C19.9,29.2,17.6,33.5,13.1,33.5L13.1,33.5z"/>
				<path class="st1" d="M27,50.5c-4.4,0-8-3.6-8-8s3.6-8,8-8s8,3.6,8,8S31.5,50.5,27,50.5z M27,36.5c-3.3,0-6,2.7-6,6s2.7,6,6,6
					s6-2.7,6-6S30.4,36.5,27,36.5z"/>
				<path class="st1" d="M20.7,46.5c-0.1,0-0.3,0-0.4-0.1c-0.5-0.2-0.7-0.8-0.5-1.3c1.3-2.8,4.2-4.6,7.2-4.6s5.9,1.8,7.2,4.6
					c0.2,0.5,0,1.1-0.5,1.3c-0.5,0.2-1.1,0-1.3-0.5c-1-2.1-3.1-3.4-5.4-3.4s-4.4,1.3-5.4,3.4C21.5,46.3,21.1,46.5,20.7,46.5
					L20.7,46.5z"/>
			</g>
			<g id="zzz">
				<g>
					<path class="st5" d="M31,25.5h-5c-0.4,0-0.8-0.2-0.9-0.6c-0.1-0.4-0.1-0.8,0.2-1.1l2.3-2.3H25v-2h5c0.4,0,0.8,0.2,0.9,0.6
						c0.2,0.4,0.1,0.8-0.2,1.1l-2.3,2.3H31V25.5z"/>
					<path class="st1" d="M30,19.5c0.4,0,0.8,0.2,0.9,0.6c0.2,0.4,0.1,0.8-0.2,1.1l-2.3,2.3H31v2h-5c-0.4,0-0.8-0.2-0.9-0.6
						c-0.1-0.4-0.1-0.8,0.2-1.1l2.3-2.3H25v-2H30 M30,18.5h-5c-0.5,0-1,0.5-1,1v2c0,0.5,0.5,1,1,1h0.2l-0.6,0.6
						c-0.6,0.6-0.7,1.4-0.4,2.2s1,1.2,1.9,1.2h5c0.5,0,1-0.5,1-1v-2c0-0.5-0.5-1-1-1h-0.2l0.6-0.6c0.6-0.6,0.7-1.4,0.4-2.2
						S30.9,18.5,30,18.5L30,18.5z"/>
				</g>
				<g>
					<path class="st5" d="M43.3,21.8H34c-0.5,0-1-0.3-1.2-0.8c-0.2-0.5-0.1-1,0.3-1.4l5.9-5.9h-6.2v-2.5H42c0.5,0,1,0.3,1.2,0.8
						c0.2,0.5,0.1,1-0.3,1.4l-5.9,5.9h6.2C43.3,19.2,43.3,21.7,43.3,21.8z"/>
					<path class="st1" d="M42,11.2c0.5,0,1,0.3,1.2,0.8c0.2,0.5,0.1,1-0.3,1.4l-5.9,5.9h6.2v2.5H34c-0.5,0-1-0.3-1.2-0.8
						c-0.2-0.5-0.1-1,0.3-1.4l5.9-5.9h-6.2v-2.5L42,11.2 M42,10.2h-9.2c-0.5,0-1,0.4-1,1v2.5c0,0.6,0.5,1,1,1h3.8l-4.2,4.2
						c-0.6,0.6-0.8,1.6-0.5,2.5s1.2,1.4,2.1,1.4h9.2c0.5,0,1-0.5,1-1v-2.5c0-0.5-0.5-1-1-1h-3.8l4.2-4.2c0.7-0.6,0.8-1.6,0.5-2.4
						S43,10.2,42,10.2C42.1,10.2,42.1,10.2,42,10.2z"/>
				</g>
				<g>
					<path class="st5" d="M57.5,14H46c-0.6,0-1.2-0.4-1.4-0.9s-0.1-1.2,0.3-1.6L52.4,4h-7.9V1H56c0.6,0,1.2,0.4,1.4,0.9
						s0.1,1.2-0.3,1.6L49.7,11h7.9V14z"/>
					<path class="st1" d="M56,1c0.6,0,1.2,0.4,1.4,0.9c0.2,0.6,0.1,1.2-0.3,1.6L49.7,11h7.9v3H46c-0.6,0-1.2-0.4-1.4-0.9
						c-0.2-0.6-0.1-1.2,0.3-1.6L52.4,4h-7.9V1H56 M56,0H44.5c-0.5,0-1,0.4-1,1v3c0,0.6,0.5,1,1,1H50l-5.7,5.7
						c-0.7,0.7-0.9,1.8-0.5,2.7C44.1,14.4,45,15,46,15h11.5c0.5,0,1-0.4,1-1v-3c0-0.6-0.5-1-1-1h-5.5l5.7-5.7
						c0.7-0.7,0.9-1.8,0.5-2.7C58,0.6,57.1,0,56,0C56,0,56,0,56,0z"/>
				</g>
			</g>
		</g>
	</g>
</g>
</svg>
