<?xml version="1.0" encoding="utf-8"?>
<!-- Generator: Adobe Illustrator 27.0.0, SVG Export Plug-In . SVG Version: 6.00 Build 0)  -->
<svg version="1.1" id="Layer_1" xmlns="http://www.w3.org/2000/svg" xmlns:xlink="http://www.w3.org/1999/xlink" x="0px" y="0px"
	 viewBox="0 0 100 100" style="enable-background:new 0 0 100 100;" xml:space="preserve">
<style type="text/css">
	.st0{fill:#141414;}
</style>
<path class="st0" d="M63.7,18.1c-0.1,0.5-0.2,1.1-0.3,1.7c-6,20.9-11.9,41.8-17.9,62.7c-0.8,2.7-2.8,4.2-5.2,3.8
	c-2.7-0.4-4.4-2.9-3.7-5.6c1.6-5.8,3.3-11.6,4.9-17.4c4.4-15.4,8.8-30.9,13.2-46.3c0.6-2.2,2.3-3.5,4.5-3.5c2,0,3.8,1.3,4.3,3.3
	C63.6,17.3,63.6,17.7,63.7,18.1L63.7,18.1z"/>
<path class="st0" d="M89.2,50c-0.5-0.3-0.8-0.5-1.1-0.8c-4.7-4.7-9.3-9.3-14-14c-1.3-1.3-1.8-2.9-1.2-4.7c0.5-1.7,1.7-2.7,3.5-3.1
	c1.5-0.3,2.9,0.1,4,1.2c6.1,6.1,12.2,12.2,18.3,18.3c1.8,1.8,1.8,4.5,0,6.4c-6,6.1-12.1,12.1-18.1,18.1c-1.9,1.9-4.7,1.9-6.5,0.1
	c-1.8-1.8-1.8-4.6,0.1-6.5c4.7-4.7,9.3-9.3,14-14C88.3,50.7,88.6,50.5,89.2,50L89.2,50z"/>
<path class="st0" d="M10.9,49.9c5.1,5.1,10,10,14.8,14.8c1.1,1.1,1.8,2.3,1.6,3.9c-0.2,1.9-1.1,3.2-2.9,3.9
	c-1.8,0.7-3.3,0.3-4.7-0.9c-0.2-0.1-0.3-0.3-0.5-0.4C13.4,65.3,7.6,59.5,1.8,53.7c-2.3-2.3-2.3-4.9,0-7.2
	c5.8-5.8,11.7-11.7,17.5-17.5c1.2-1.2,2.6-1.8,4.3-1.5c1.7,0.4,3,1.4,3.5,3.1c0.5,1.8,0.1,3.4-1.2,4.7c-4.7,4.7-9.3,9.3-14,14
	C11.6,49.4,11.3,49.6,10.9,49.9L10.9,49.9z"/>
</svg>
