<?xml version="1.0" encoding="utf-8"?>
<!-- Generator: Adobe Illustrator 27.0.0, SVG Export Plug-In . SVG Version: 6.00 Build 0)  -->
<svg version="1.1" id="Layer_1" xmlns="http://www.w3.org/2000/svg" xmlns:xlink="http://www.w3.org/1999/xlink" x="0px" y="0px"
	 viewBox="0 0 100 100" style="enable-background:new 0 0 100 100;" xml:space="preserve">
<style type="text/css">
	.st0{fill:#141414;}
</style>
<g>
	<path class="st0" d="M81,0H19C8.5,0,0,8.5,0,19v62c0,10.5,8.5,19,19,19h62c10.5,0,19-8.5,19-19V19C100,8.5,91.5,0,81,0z M87.9,60.8
		c-0.4-0.2-0.7-0.4-1.1-0.6c-1.4-0.9-2.5-2.1-3.3-3.8c-0.9-1.8-1.3-3.9-1.3-6.3c0-2.6,0.4-4.8,1.3-6.5c0.8-1.7,1.9-2.9,3.4-3.8
		c0.3-0.2,0.6-0.3,0.9-0.5V60.8z M87.9,28.9c-2.3,0.4-4.4,1.3-6.3,2.4c-3,1.9-5.4,4.5-7.1,7.8c-1.6,3.2-2.4,6.9-2.4,11
		c0,4,0.8,7.7,2.4,10.9c1.7,3.3,4,5.9,7.1,7.7c1.9,1.2,4,2,6.2,2.4V81c0,3.8-3.1,6.9-6.9,6.9H19c-3.8,0-6.9-3.1-6.9-6.9V19
		c0-3.8,3.1-6.9,6.9-6.9h62c3.8,0,6.9,3.1,6.9,6.9V28.9z"/>
	<g>
		<g>
			<path class="st0" d="M64.8,51.8L64.8,51.8h-2.5c-1.9,0-3.6,1.5-3.8,3.4c-0.2,2-1,3.4-2.4,4.5c-1.5,1.2-3.5,1.8-5.9,1.8
				c-3,0-5.2-0.9-7-2.9c-1.8-2-2.7-4.9-2.7-8.6c0-2.5,0.4-4.6,1.3-6.4c0.8-1.7,1.9-3,3.3-3.9c1.4-0.9,3.1-1.4,5.2-1.4
				c2.2,0,4,0.5,5.5,1.6c1.4,1,2.2,2.4,2.5,4.3c0.3,1.8,1.9,3.1,3.7,3.1h2.4c1.1,0,2.1-0.5,2.8-1.3c0.7-0.8,1.1-1.9,0.9-3
				c-0.3-2.9-1.4-5.5-3.1-7.8c-1.7-2.2-3.8-3.9-6.3-5.1c-2.5-1.2-5.3-1.8-8.4-1.8c-4,0-7.5,0.9-10.5,2.8c-3,1.9-5.4,4.5-7,7.8
				c-1.6,3.2-2.4,6.9-2.4,11c0,4.1,0.8,7.7,2.4,10.9c1.6,3.3,4,5.9,7,7.7c3,1.8,6.5,2.7,10.4,2.7c4.8,0,9-1.4,12.3-4.2
				c3.4-2.8,5.4-6.6,5.9-11.2c0-0.2,0-0.4,0-0.6C68.6,53.5,66.9,51.8,64.8,51.8z"/>
		</g>
		<path class="st0" d="M23.2,58.4c-3.4,0-6.1,2.7-6.1,6.1c0,3.4,2.7,6.1,6.1,6.1c3.4,0,6.1-2.7,6.1-6.1
			C29.3,61.2,26.6,58.4,23.2,58.4z"/>
	</g>
</g>
</svg>
