<?xml version="1.0" encoding="UTF-8"?>
<svg id="Layer_1" data-name="Layer 1" xmlns="http://www.w3.org/2000/svg" xmlns:xlink="http://www.w3.org/1999/xlink" viewBox="0 0 512 512">
  <defs>
    <clipPath id="clippath">
      <rect x="662.15" width="1640" height="856" style="fill: none;"/>
    </clipPath>
  </defs>
  <g style="clip-path: url(#clippath);">
    <g style="opacity: .5;">
      <path d="M510.98,68.3c-3.21-1.81-5.67-4.35-7.39-7.63-1.72-3.27-2.51-7.07-2.38-11.39h3.34c-.13,3.69,.52,6.91,1.95,9.68,1.43,2.76,3.49,4.93,6.2,6.48,2.7,1.56,5.86,2.33,9.48,2.33,5.46,0,9.87-1.46,13.2-4.38,3.34-2.92,5-6.86,5-11.82,0-5.27-1.54-9.17-4.62-11.68-3.08-2.51-7.17-3.77-12.25-3.77h-6.2v-3.15h6.39c5.08,0,8.94-1.43,11.58-4.29,2.64-2.86,3.96-6.35,3.96-10.49,0-4.58-1.53-8.1-4.58-10.58-3.05-2.48-7.09-3.72-12.11-3.72-5.66,0-10.01,1.68-13.06,5.05-3.05,3.37-4.54,7.79-4.48,13.25h-3.15c-.13-4.32,.63-8.1,2.29-11.34,1.65-3.24,4.07-5.75,7.24-7.53,3.18-1.78,6.89-2.67,11.15-2.67,6.35,0,11.36,1.59,15.01,4.77,3.65,3.18,5.48,7.4,5.48,12.68,0,4.13-1.1,7.59-3.29,10.39-2.19,2.8-5.1,4.73-8.72,5.81v.38c4.13,.83,7.35,2.75,9.68,5.77,2.32,3.02,3.48,6.75,3.48,11.2,0,3.88-.92,7.26-2.76,10.15-1.84,2.89-4.4,5.15-7.67,6.77-3.27,1.62-7.1,2.43-11.49,2.43s-8.09-.91-11.3-2.72Z" style="fill: #b50b1c;"/>
      <path d="M506.55,79.26h29.07c6.42,0,11.42,1.64,15.01,4.91,3.59,3.27,5.38,7.55,5.38,12.82,0,3.75-.97,7.09-2.91,10.01-1.94,2.92-5,4.86-9.2,5.81v.29c4.64,.83,8.12,2.78,10.44,5.86,2.32,3.08,3.48,6.66,3.48,10.72,0,5.78-2.02,10.41-6.05,13.87-4.04,3.46-9.45,5.19-16.25,5.19h-28.98V79.26Zm30.5,32.22c5.02,0,8.83-1.29,11.44-3.86,2.6-2.57,3.91-5.96,3.91-10.15,0-4.64-1.54-8.28-4.62-10.91-3.08-2.64-7.17-3.96-12.25-3.96h-25.35v28.88h26.88Zm-1.53,33.84c6.1,0,10.71-1.48,13.82-4.43,3.11-2.95,4.67-6.75,4.67-11.39s-1.46-8.16-4.38-10.77c-2.92-2.6-7.05-3.91-12.39-3.91h-27.07v30.5h25.35Z" style="fill: #b50b1c;"/>
      <path d="M516.7,223.53c-4.93-2.99-8.75-7.13-11.49-12.44-2.73-5.31-4.1-11.49-4.1-18.54s1.37-13.25,4.1-18.59c2.73-5.34,6.58-9.48,11.53-12.44,4.96-2.95,10.71-4.43,17.25-4.43,5.4,0,10.23,.94,14.49,2.81,4.26,1.88,7.77,4.53,10.53,7.96,2.76,3.43,4.56,7.53,5.39,12.3h-3.81c-.7-3.88-2.23-7.28-4.58-10.2-2.35-2.92-5.38-5.23-9.1-6.91-3.72-1.68-8.02-2.53-12.92-2.53-5.97,0-11.14,1.33-15.49,4-4.35,2.67-7.69,6.4-10.01,11.2-2.32,4.8-3.48,10.41-3.48,16.82s1.16,12.03,3.48,16.82c2.32,4.8,5.66,8.53,10.01,11.2,4.35,2.67,9.52,4,15.49,4,7.37,0,13.41-1.83,18.11-5.48,4.7-3.65,7.53-8.5,8.48-14.54l3.81,.1c-.64,4.77-2.32,8.9-5.05,12.39-2.73,3.5-6.26,6.2-10.58,8.1-4.32,1.91-9.25,2.86-14.77,2.86-6.61,0-12.38-1.49-17.3-4.48Z" style="fill: #b50b1c;"/>
      <path d="M516.7,302.03c-4.93-2.99-8.75-7.13-11.49-12.44-2.73-5.31-4.1-11.49-4.1-18.54s1.37-13.25,4.1-18.59c2.73-5.34,6.58-9.48,11.53-12.44,4.96-2.95,10.71-4.43,17.25-4.43,5.4,0,10.23,.94,14.49,2.81,4.26,1.88,7.77,4.53,10.53,7.96,2.76,3.43,4.56,7.53,5.39,12.3h-3.81c-.7-3.88-2.23-7.28-4.58-10.2-2.35-2.92-5.38-5.23-9.1-6.91-3.72-1.68-8.02-2.53-12.92-2.53-5.97,0-11.14,1.33-15.49,4-4.35,2.67-7.69,6.4-10.01,11.2-2.32,4.8-3.48,10.41-3.48,16.82s1.16,12.03,3.48,16.82c2.32,4.8,5.66,8.53,10.01,11.2,4.35,2.67,9.52,4,15.49,4,7.37,0,13.41-1.83,18.11-5.48,4.7-3.65,7.53-8.5,8.48-14.54l3.81,.1c-.64,4.77-2.32,8.9-5.05,12.39-2.73,3.5-6.26,6.2-10.58,8.1-4.32,1.91-9.25,2.86-14.77,2.86-6.61,0-12.38-1.49-17.3-4.48Z" style="fill: #b50b1c;"/>
      <path d="M506.55,314.76h25.74c6.35,0,11.82,1.43,16.4,4.29,4.58,2.86,8.09,6.9,10.53,12.11,2.45,5.21,3.67,11.34,3.67,18.4s-1.22,13.09-3.67,18.3c-2.45,5.21-5.96,9.25-10.53,12.11-4.58,2.86-10.04,4.29-16.4,4.29h-25.74v-69.49Zm25.64,65.96c5.66,0,10.49-1.3,14.49-3.91,4-2.6,7.07-6.24,9.2-10.91,2.13-4.67,3.19-10.15,3.19-16.44s-1.1-12.14-3.29-16.78c-2.19-4.64-5.31-8.21-9.34-10.72-4.04-2.51-8.79-3.76-14.25-3.76h-22.02v62.53h22.02Z" style="fill: #b50b1c;"/>
      <path d="M506.55,393.26h5.91l26.88,64.72h.19l27.07-64.72h5.91v69.49h-3.72v-40.03l.29-25.35h-.67l-27.17,65.39h-3.43l-27.26-65.39h-.57l.19,25.35v40.03h-3.62v-69.49Z" style="fill: #b50b1c;"/>
      <path d="M506.55,471.75h25.45c7.18,0,12.87,1.83,17.06,5.48,4.19,3.65,6.29,8.82,6.29,15.49,0,4.26-.97,7.96-2.91,11.11-1.94,3.15-4.66,5.58-8.15,7.29-3.5,1.72-7.63,2.57-12.39,2.57l-21.73-.1v27.64h-3.62v-69.49Zm39.89,33.74c3.4-3.24,5.1-7.5,5.1-12.77s-1.72-9.74-5.15-12.82c-3.43-3.08-8.33-4.62-14.68-4.62h-21.54v34.89l21.54,.1c6.42,.06,11.33-1.53,14.73-4.77Z" style="fill: #b50b1c;"/>
    </g>
  </g>
  <g>
    <g>
      <path d="M440.31,410.51c-.79-7.69-6.32-13.77-13.53-15.52,8.42-8.6,13.62-20.36,13.62-33.32V67.52c0-26.29-21.39-47.67-47.67-47.67H119.26c-26.29,0-47.67,21.39-47.67,47.67V361.66c0,17.26,9.22,32.41,23,40.78-13.32,8.73-22.13,23.78-22.13,40.86,0,26.94,21.88,48.86,48.77,48.86,3.34,0,6.71-.35,10.01-1.03l294.93-61.28c9.01-1.87,15.09-10.18,14.15-19.33ZM109.08,474.58c-.34-.13-.67-.27-1.01-.41,.33,.14,.67,.28,1.01,.41Zm-1.64-.69c-.32-.14-.64-.29-.95-.45,.31,.15,.63,.3,.95,.45Zm5.57,1.97c-.57-.14-1.13-.31-1.68-.48,.56,.17,1.12,.33,1.68,.48Zm-2.18-.65c-.38-.13-.77-.26-1.15-.4,.38,.14,.76,.27,1.15,.4Zm3.89,1.03c-.54-.11-1.07-.23-1.6-.36,.53,.13,1.06,.25,1.6,.36Zm3.51,.5c-.36-.03-.72-.07-1.08-.12,.36,.04,.72,.09,1.08,.12Zm-1.77-.21c-.39-.06-.78-.12-1.16-.19,.39,.07,.77,.14,1.16,.19Zm308.67-64.48c-.03-.3-.11-.6-.24-.88,.13,.28,.21,.58,.24,.88Zm-337.62-43.88c-.43-2.11-.66-4.29-.66-6.53,0,2.24,.23,4.42,.66,6.53,.22,1.05,.48,2.09,.8,3.11,4.1,13.19,16.41,22.77,30.95,22.77H392.74c10.48,0,19.78-4.97,25.71-12.68-5.92,7.71-15.23,12.68-25.71,12.68H119.26c-14.54,0-26.85-9.58-30.95-22.77-.32-1.01-.58-2.05-.8-3.11Zm332.47,11.01c-.29,.45-.59,.9-.91,1.33,.31-.44,.62-.88,.91-1.33ZM94.8,463.92c-.22-.28-.43-.56-.63-.84,.21,.28,.42,.56,.63,.84Zm-1.04-1.4c-.21-.3-.41-.6-.61-.9,.2,.3,.4,.6,.61,.9Zm-.96-1.45c-.21-.34-.41-.68-.61-1.02,.2,.34,.4,.69,.61,1.02Zm-.89-1.5c-.57-1.02-1.08-2.07-1.54-3.15,.46,1.08,.97,2.13,1.54,3.15Zm-1.74-3.66c-.15-.37-.3-.75-.44-1.13,.14,.38,.29,.76,.44,1.13Zm-.66-1.77c-.12-.35-.23-.7-.34-1.05,.11,.35,.22,.7,.34,1.05Zm-.54-1.75c-.1-.34-.19-.69-.27-1.03,.09,.35,.18,.69,.27,1.03Zm-.44-1.76c-.08-.35-.15-.7-.21-1.05,.07,.35,.14,.7,.21,1.05Zm-.35-1.79c-.06-.37-.11-.74-.16-1.11,.05,.37,.1,.74,.16,1.11Zm-.25-1.82c-.04-.41-.08-.82-.11-1.24,.03,.41,.06,.83,.11,1.24Zm-.15-1.85c-.03-.61-.05-1.23-.05-1.86,0,.62,.02,1.24,.05,1.86Zm7.46,19.29c.22,.27,.45,.54,.68,.81-.23-.27-.46-.54-.68-.81Zm1.13,1.32c.25,.27,.5,.54,.75,.8-.25-.26-.51-.53-.75-.8Zm1.19,1.25c.29,.29,.58,.57,.88,.84-.3-.28-.59-.56-.88-.84Zm8.32,6.09c-.31-.16-.62-.33-.92-.5,.3,.17,.61,.34,.92,.5Zm-1.52-.84c-.31-.18-.62-.37-.92-.57,.31,.19,.61,.38,.92,.57Zm-1.47-.91c-.33-.22-.66-.44-.98-.67,.32,.23,.65,.46,.98,.67Zm-1.41-.98c-.93-.68-1.82-1.41-2.68-2.18,.85,.77,1.75,1.5,2.68,2.18Zm17.49,6.41c.35,.02,.71,.04,1.07,.06-.36-.01-.71-.03-1.07-.06Zm1.81,.08c.36,0,.72,0,1.08,0-.21,0-.41,.02-.62,.02-.15,0-.3,0-.46-.01Zm7.35-.7c-.62,.13-1.23,.24-1.85,.33,.61-.09,1.23-.2,1.85-.33Zm-2.47,.41c-.41,.05-.82,.11-1.23,.15,.41-.04,.82-.09,1.23-.15Zm-1.95,.2c-.37,.03-.74,.05-1.11,.07,.37-.02,.74-.04,1.11-.07Zm301.01-62.97c.26-.39,.39-.84,.42-1.29-.03,.46-.16,.91-.42,1.29Z" style="fill: #020202;"/>
      <path d="M121.23,512c-37.84,0-68.62-30.82-68.62-68.7,0-14.8,4.73-28.9,13.21-40.49-8.96-11.67-14.08-26.14-14.08-41.15V67.52C51.74,30.29,82.03,0,119.26,0H392.74c37.23,0,67.52,30.29,67.52,67.52V361.66c0,10.29-2.31,20.25-6.67,29.28,3.52,5.1,5.81,11.1,6.47,17.54h0c1.98,19.31-10.85,36.84-29.85,40.79l-294.93,61.28c-4.63,.96-9.35,1.45-14.05,1.45Zm-1.04-39.7c.21,0,.42,.01,.64,.02l.21-15.26h-.12s.12,0,.12,0h.02c.14,0,.28,0,.42,0h0c.05,.01,.11,.02,.16,.02-.05,0-.11,0-.16,0l.29,15.26c.22,0,.44-.01,.65-.02l-.61-15.26c.14,0,.29-.02,.43-.03l1.14,15.23c.21-.01,.42-.03,.63-.05l-1.44-15.2c.16-.01,.32-.04,.48-.06l2.02,15.14c.18-.02,.36-.05,.54-.08l-2.27-15.1c.25-.04,.51-.08,.76-.14l3.1,14.94s0,0,0,0l286.37-59.51-1.88-.46,10.6,.62-16.9,1.71c.19,1.85,.67,3.65,1.44,5.34l15.49-7.05h.21s-.05-.02-.05-.02h-.14s.1-.03,.1-.03l-6.06-4.01c-2.22,1.13-4.53,2.09-6.9,2.89l-4.03-.98c-.05,.38-.08,.76-.11,1.14l3.07,.18c-4.99,1.56-10.26,2.37-15.67,2.37H119.26c-1.87,0-3.72-.1-5.55-.29l-8.24,5.41c-8.25,5.41-13.17,14.48-13.17,24.27h0s15.26-.01,15.26-.01c0,.27,0,.53,.02,.8l-15.24,.84c0,.18,.02,.36,.03,.54l15.23-1.1c.01,.16,.02,.31,.04,.47l-15.17,1.69c.02,.21,.05,.42,.08,.63l15.15-1.95s0,.03,0,.04c.02,.12,.03,.24,.05,.36l-15.06,2.49c.03,.21,.07,.42,.11,.63l15-2.83c.03,.14,.05,.29,.09,.43l-14.9,3.31c.05,.21,.1,.43,.15,.64l14.83-3.61c.03,.13,.07,.26,.11,.4l-14.7,4.1c.06,.2,.11,.4,.17,.59l14.6-4.45c.05,.15,.1,.3,.15,.45l-14.45,4.91c.06,.18,.13,.36,.19,.54l14.33-5.23c.06,.16,.12,.31,.18,.47l-14.14,5.74c.06,.15,.12,.29,.18,.44l14.04-5.96c.18,.43,.39,.86,.61,1.26l-13.33,7.42c.08,.14,.16,.28,.24,.42l13.22-7.62c.08,.14,.16,.28,.24,.41l-12.94,8.09c.1,.16,.2,.32,.3,.48l12.78-8.34c.08,.13,.17,.26,.26,.38l-12.52,8.74c.11,.16,.22,.31,.33,.47l12.3-9.05c.1,.13,.19,.26,.29,.39l-12.04,9.4c.12,.15,.24,.31,.37,.46l11.82-9.67c.1,.12,.2,.24,.3,.35l-11.53,10.02c.13,.15,.26,.3,.39,.45l11.34-10.22c.1,.11,.2,.22,.31,.32l-11.01,10.59c.12,.13,.25,.26,.37,.38l10.78-10.82c.13,.13,.27,.26,.41,.39l-10.42,11.17c.1,.1,.21,.19,.31,.29l10.23-11.34c.35,.32,.72,.62,1.11,.9l-9.03,12.33c.12,.09,.25,.18,.37,.27l8.83-12.48c.13,.09,.26,.19,.4,.28l-8.38,12.78c.16,.1,.31,.2,.47,.3l8.14-12.94c.14,.09,.28,.18,.42,.26l-7.75,13.18c.17,.1,.34,.2,.51,.29l7.47-13.34c.11,.06,.23,.13,.34,.19l-7.03,13.58c.18,.1,.37,.19,.55,.28l6.79-13.7c.12,.06,.24,.11,.36,.17l-6.33,13.92c.18,.08,.37,.16,.55,.24l6.05-14.04c.14,.06,.28,.11,.43,.17l-5.61,14.22c.17,.07,.35,.14,.53,.2l5.34-14.32c.15,.05,.3,.1,.46,.16l-4.81,14.51c.14,.05,.28,.09,.42,.14l4.54-14.59c.23,.07,.47,.14,.71,.2l-3.79,14.8s.06,.02,.1,.02l3.74-14.81c.2,.05,.4,.1,.6,.14l-2.97,14.98c.17,.03,.33,.06,.5,.09l2.72-15.04s0,0,0,0h.07c.14,.04,.28,.06,.42,.08l-2.2,15.11c.2,.03,.39,.05,.59,.08l1.89-15.16c.14,.02,.27,.03,.41,.05l-1.38,15.21c.21,.02,.42,.03,.62,.05l1.02-15.24c.15,0,.3,.02,.46,.02l-.55,15.26Zm-20.44-9.57l11.35-10.22-11.35,10.22Zm302.96-93.43l12.09,9.29c.19-.24,.37-.48,.55-.73l-12.38-8.91c.12-.17,.23-.34,.35-.51l12.81,8.28c2.89-4.46,4.44-9.65,4.44-15.05V67.52c0-15.35-12.48-27.83-27.83-27.83H119.26c-15.35,0-27.83,12.48-27.83,27.83V361.66h15.26c0,.86,.09,1.72,.26,2.55h0c.08,.41,.19,.81,.31,1.21,1.64,5.26,6.46,8.81,12,8.81H392.74c3.93,0,7.57-1.8,9.97-4.93Z" style="fill: #141414;"/>
    </g>
    <g>
      <rect x="81.76" y="30.02" width="338.29" height="358.96" rx="31.85" ry="31.85" style="fill: #e20613;"/>
      <path d="M392.01,415.2l-268.97,55.89c-20.85,4.33-40.41-11.59-40.41-32.88h0c0-18.55,15.03-33.58,33.58-33.58H390.93c6.43,0,7.38,9.26,1.09,10.57Z" style="fill: #e20613;"/>
    </g>
    <g>
      <path d="M409.39,407.13h-3.8v-2.39h10.44v2.39h-3.89v10.51h-2.74v-10.51Z" style="fill: #e20613;"/>
      <path d="M417.56,404.74h4.18l2.65,8.44h.11l2.62-8.44h4.19v12.9h-2.67v-5.1l.04-4.92h-.12l-3.03,10.01h-2.16l-3.03-10.01h-.14l.05,4.95v5.06h-2.69v-12.9Z" style="fill: #e20613;"/>
    </g>
  </g>
</svg>